<svg height="300pt" preserveAspectRatio="xMidYMid meet" viewBox="0 0 300 300" width="300pt" xmlns="http://www.w3.org/2000/svg"><g transform="matrix(.1 0 0 -.1 0 300)"><path d="m0 2989c0-5 5-7 10-4s10 8 10 11c0 2-4 4-10 4-5 0-10-5-10-11z"/><path d="m400 2895c0-9-11-21-25-27s-25-17-25-23c0-7-9-15-21-18-16-4-19-11-14-26 4-12 2-21-4-21-7 0-7-8-2-22 5-13 5-32 1-43s-5-24-2-29c2-4-1-12-8-16-9-6-7-11 9-19 11-7 21-17 21-24 0-8-4-7-9 2-7 10-9-6-8-47 1-34-1-63-4-64-4-2-10-14-14-27-4-15-3-21 3-17 11 7 9-39-3-67-4-10-5-21-1-24 3-4 6-1 6 5 0 7 5 12 10 12 6 0 4-13-5-30-9-18-11-30-5-30s8-10 6-22c-12-57-15-69-22-80-4-7-3-8 4-4 13 8 13 8 15-51 1-22-1-39-4-37-4 2-10-3-13-12-4-10-2-13 7-8 9 6 9 4 1-7-6-8-10-31-8-51 2-24-2-43-12-53-14-14-11-19 8-16 4 0 5-6 2-14-4-8-10-15-15-15s-9-5-9-11c0-5 3-8 8-5 15 9 0-79-16-91-14-12-14-13 2-13 13 0 16-4 9-12-5-7-10-40-12-73-1-33-8-63-14-67-9-6-9-8 1-8 8 0 10-5 6-12-10-15-15-51-17-105-1-24-6-43-12-43-5 0-9-17-9-37 1-21-1-42-5-48-3-5-6-12-6-15-3-19-20-58-32-71-8-9-15-27-16-39-1-13-12-27-25-33-20-9-27-8-42 13-17 22-17 27-4 41 14 15 11 19-23 40-21 13-41 28-45 33-4 6-8-21-8-60v-70l43-20 42-19-42-3-43-3v-453c0-391 2-457 16-484 8-18 13-36 9-42-3-5-2-10 4-10 5 0 12 13 16 29 3 16 22 51 41 78 24 32 33 40 28 23-4-14-8-34-10-45-1-11-5-37-8-59-5-38-18-59-68-108-25-24-28-33-28-97v-71h182 181l-23 25c-13 14-31 25-39 25-13 0-13 2-3 9 8 4 13 12 12 16-3 12 40 56 49 50 5-2 26 2 47 11 34 14 37 17 21 29-15 11-17 35-17 224v211h40 40v-200c0-140 4-206 12-220 7-10 9-23 5-27-5-4-12-1-17 7-24 39-78-70-62-125l8-30 92-3c62-2 92 1 92 8 0 6-5 8-10 5-6-3-10-2-10 2 0 5 10 14 21 22 20 12 21 11 15-6-5-16-4-16 6-3 14 17 94 50 118 50 12-1 12-3-2-14-13-10-15-15-6-24 7-7 10-12 8-13-76-12-96-27-34-25 27 0 52 6 56 11 5 6 8 6 8-2 0-14 39-14 58 0 7 5 12 6 12 0 0-17 36-9 37 9 2 22 26 48 45 48 10 0 10-2-1-9-12-8-9-11 14-17 19-5 30-3 33 4 2 8 11 6 28-5 19-12 22-19 13-29-9-11-8-14 4-14 9 0 17 8 19 17 3 16 4 16 20 0 9-9 25-17 35-17 15 1 14 4-7 23-25 22-30 29-30 46 0 5-34 9-75 9-66 0-80 3-122 30-27 17-69 37-95 43-27 7-48 16-48 19 0 4 76 4 169 2l168-4 7 32c3 18 7 51 7 74l1 41 9-50c4-27 10-68 12-90 4-44 20-50 25-10 2 14 7 23 11 21 3-3 7 3 8 12 0 9 4 33 7 52 5 30 2 38-21 57-22 18-25 25-15 35 18 18 15 26-10 30-34 5-32 31 2 50 21 12 30 25 30 43 0 14 6 26 13 27 23 2 32 5 58 16 14 5 72 13 130 16 64 3 95 2 79-3-14-5-43-9-66-10-22-1-64-8-92-16l-52-16v-79c0-51 4-80 11-80 6 0 22-8 35-19 19-15 31-17 66-10 50 9 98 1 76-12-7-5-30-9-50-9-21 0-38-5-38-10 0-6 11-8 25-4 17 4 25 2 25-7 0-12 2-12 9 0 6 10 13 11 29 2 11-6 30-11 41-11s28-11 37-25 23-25 32-25c13 0 13 2-3 13-16 12-17 22-11 78 15 132 18 142 35 123 12-13 22-74 12-74-5 0-4-11 2-25 7-14 18-25 25-25 15 0 16-21 2-38-7-8-7-9 1-3 7 6 23 5 40-1 35-12 73-3 49 12-12 8-12 10 2 15 19 7 71-23 63-36-7-10 22-18 86-22 25-2 51-7 57-11 6-3 13-2 17 4 3 5 23 10 43 10 30-1 34-3 19-11-9-5-22-7-27-4-6 4-7-1-3-12 6-15 4-16-9-5-12 10-18 9-28-3-12-14-4-16 78-14 50 2 95 0 98-4 11-10 24-8 24 3 0 6-7 10-15 10s-15 5-15 10c0 6-7 10-16 10-8 0-12-4-9-10 3-5 2-10-3-10-9 0-22 23-22 37 0 2 14 2 30-2 17-4 30-3 30 2 0 9 43 12 202 14 102 2 110 1 191-34 86-37 112-43 121-29 8 13 10 217 2 230-4 7-16 12-26 12-20 0-36 17-25 28 3 3 10 0 14-7 5-7 28-15 52-18l44-5-3 1168c-1 643-3 1193-2 1222v53l-1062-6c-584-3-1063-7-1064-8-2-2-14-1620-14-1842v-159l-40 39c-33 32-40 46-40 78 0 23 4 36 10 32 13-8 13 61-1 86-7 13-10 311-10 934 0 503-2 915-4 915-3 0-5-7-5-15zm1690-704c0-40-5-63-15-71-13-11-15-7-15 26 0 58 11 114 21 108 5-3 9-31 9-63zm225 59c4-6-5-30-19-55-32-54-32-55 0-55 35 0 26-24-10-28-54-7-59 3-31 57 30 60 30 61 6 61-21 0-34 13-24 24 10 10 71 7 78-4zm-1440-58c-1-47 1-51 24-54 13-2 26-9 29-16 3-10-6-12-34-10l-39 3-3 68c-2 53 0 68 10 65 8-3 13-23 13-56zm97 3c4-72 22-71 26 1 4 70 26 69 30-2 2-40-1-54-17-68-15-14-23-15-40-6-18 9-21 20-21 70 0 75 18 79 22 5zm98 9c0-28 4-43 10-39 6 3 13-1 16-9 6-16 44-23 44-8 0 4-14 19-32 34-28 22-31 30-22 45 14 23 41 28 59 13 23-19 18-33-10-26-14 4-25 3-25-2s11-14 25-20c32-15 34-56 4-72-16-9-26-8-45 5-21 14-24 14-24 0 0-8-4-15-10-15-5 0-11 23-11 50-1 28-2 56-3 63-3 16 3 27 15 27 5 0 9-21 9-46zm260 27c13-26 3-50-26-57-15-4-24-14-26-32-5-47-23-29-26 27-2 29-1 60 2 67 8 21 63 17 76-5zm45-32c0-24 4-50 8-57 16-23 27-1 27 54 0 30 5 54 10 54 6 0 10-27 10-60 0-48-4-61-19-70-25-13-27-13-45 6-20 20-23 128-3 121 7-2 12-22 12-48zm155 41c0-5-13-10-30-10-37 0-41-25-5-34 29-7 24-26-6-26-13 0-19-7-19-21 0-16 5-20 27-17 15 2 28-2 30-9 3-9-8-13-36-13h-41v70 70h40c22 0 40-4 40-10zm100-10c7-14 8-26 0-39-6-13-7-28 0-45 6-17 6-27-1-32-5-3-15 8-22 25-14 37-31 35-35-2-7-55-22-25-22 43v70h35c24 0 37-6 45-20zm110 10c0-5-7-10-15-10-12 0-15-13-15-60 0-33-4-60-9-60-14 0-21 27-21 76 0 32-4 44-15 44-8 0-15 5-15 10 0 6 20 10 45 10s45-4 45-10zm74-12c30-42 10-118-30-118-19 0-44 40-44 70s25 70 45 70c8 0 21-10 29-22zm214 10c16-16 15-90-1-112-8-11-23-17-38-14-22 3-24 7-27 71l-3 67h29c15 0 33-5 40-12zm163-53c12-40 15-63 8-70-6-6-12-2-15 13-8 28-40 29-47 1-3-12-10-18-16-14-6 3-10 9-7 13 2 4 11 33 20 65s22 57 28 55 19-31 29-63zm-1291-185c0-5-9-10-20-10-26 0-26-16 0-23 24-6 34-29 26-61-8-34-35-41-60-17-23 23-15 41 9 21 20-16 41 1 31 25-4 11-12 14-26 10-17-6-20-2-20 29 0 33 2 36 30 36 17 0 30-4 30-10zm160-39v-50l31 29c18 16 28 33 24 40-5 8-11 6-20-7-16-22-33-9-19 15 14 22 41 27 59 12 23-19 18-36-17-69l-33-31h28c17 0 27-5 27-15 0-17-55-21-65-5-5 8-11 8-20 0-11-9-14 1-17 52-4 67-2 78 13 78 5 0 9-22 9-49zm278 37c19-19 14-35-19-66l-31-29 33-7c41-8 26-29-17-24-39 4-43 33-9 68 16 17 24 33 20 40-6 9-10 8-17-4-11-19-28-21-28-3s21 37 40 37c9 0 21-5 28-12zm84-5c37-33 7-136-36-120-35 14-43 89-14 124 14 17 28 16 50-4zm58-47c0-84-17-94-22-14-4 67-2 78 13 78 5 0 9-29 9-64zm90 38c22-57 1-120-38-112-19 4-39 35-28 45 4 4 12 0 17-10 11-19 29-14 29 9 0 8-4 13-10 9-15-10-50 32-43 52 15 40 59 45 73 7zm174-32c9-32 16-64 16-70 0-20-17-14-23 8-6 23-37 27-37 6 0-16-18-31-26-23-5 4 23 112 33 130 11 18 22 3 37-51zm86 48c0-5-7-10-15-10-10 0-15-15-17-55-4-72-23-71-22 0 1 47-1 55-17 55-11 0-19 5-19 10 0 6 20 10 45 10s45-4 45-10zm168-6c8-14 10-14 21 0 16 19 42 21 59 4 21-21 13-46-20-70l-33-23 29-5c47-8 45-30-3-30-36 0-41 3-41 22 0 12 14 37 32 55 23 23 27 33 16 33-9 0-19-7-22-16-5-13-9-14-21-4s-15 10-15-2c0-8-11-21-25-28s-25-17-25-21c0-5 11-11 25-15 39-10 30-26-12-22-52 4-57 33-13 69 20 17 29 32 25 40-6 8-13 5-26-12l-19-24v26c0 14 3 29 7 32 12 13 52 7 61-9zm226-6c23-32 20-73-7-104l-24-27-21 21c-27 27-29 87-5 114 21 24 39 23 57-4zm100 0c31-43 9-118-34-118-39 0-55 87-23 122 21 24 39 23 57-4zm-189-17c7-12-12-24-25-16-11 7-4 25 10 25 5 0 11-4 15-9zm-1140-40c3-5 0-13-5-16-16-10-62 4-55 15 8 13 52 13 60 1zm253-9c3-10-5-13-29-10-18 2-34 9-37 16-3 10 5 13 29 10 18-2 34-9 37-16zm882 2c0-9-5-14-12-12-18 6-21 28-4 28 9 0 16-7 16-16zm-1225-183c-3-17-2-32 4-36 6-3 11-15 11-26 0-10 5-19 10-19 6 0 10-7 10-15 0-17-16-20-25-5-4 6-13 7-23 1-21-11-52 4-52 24 0 18 12 19 28 3 9-9 15-9 25 1s8 16-10 28-21 19-12 34c7 15 6 19-5 19-8 0-18 5-21 10-4 6 8 10 30 10 35 0 36-1 30-29zm112 17c5-7 10-35 11-61 1-41-2-49-21-56-36-14-58 13-51 63 8 60 11 66 32 66 11 0 24-6 29-12zm93-5c1-17 1-17 14 0s36 24 36 10c0-3-7-14-16-24-15-17-15-21 5-54 27-47 15-68-13-24l-21 34-3-27c-4-31-22-39-23-10 0 9-1 35-3 57-1 22 0 43 2 48 6 14 22 7 22-10zm128 5c14-14 16-48 3-48-5 0-12 10-15 23-6 22-7 22-21 3-8-11-15-30-15-42 0-24 25-50 34-36 3 6-2 13-11 16-12 5-13 10-5 18 17 17 44 1 40-23-9-63-78-37-78 29 0 54 39 89 68 60zm-324-264c21-8 10-24-17-25h-22l23-11c26-13 39-54 25-77-16-25-50-25-63-1-15 28-4 39 14 14 11-15 17-16 27-7 18 18 3 46-21 38-17-6-20-2-20 28 0 46 14 56 54 41zm76-31c0-16 3-45 6-65 5-30 3-38-9-38s-16 14-19 61c-1 33-1 63 1 65 12 11 21 1 21-23zm162 2c16-35 1-45-22-15-16 21-20 23-25 8-9-23-2-71 11-75 6-2 14 6 17 18 5 20 27 19 27-2 0-17-39-49-54-43-19 7-38 66-30 90 18 50 57 60 76 19zm58 16c0-5 5-22 11-38l11-28 15 38c8 20 19 37 24 37 12 0 11-127-1-135-6-4-10 6-10 21 0 27-1 27-15 8-12-15-16-16-23-6-7 11-11 8-15-8-11-42-27-9-27 56 0 50 3 64 15 64 8 0 15-4 15-9zm-615-41c3-5-1-10-9-10-9 0-16 5-16 10 0 6 4 10 9 10 6 0 13-4 16-10zm279-238c9-32 16-64 16-70 0-20-17-14-23 8-6 23-37 27-37 6 0-15-18-31-25-24s35 138 44 138c5 0 16-26 25-58zm56-8c0-51 2-54 24-54 14 0 28-5 31-11 5-7-8-9-37-7l-43 3-3 54c-3 59 3 85 18 76 5-3 10-31 10-61zm100-10c0-36-4-64-10-64s-10 30-10 71c0 44 4 68 10 64 6-3 10-35 10-71zm104 12c9-27 16-56 16-63 0-20-18-15-25 7-7 23-35 27-35 6 0-15-18-32-25-24-3 3 15 77 31 127 7 21 19 3 38-53zm113 39c3-9 2-19-2-23s-10-1-12 6c-6 16-23 16-23-1 0-7 10-17 23-22 29-13 29-53 0-72-19-13-24-12-43 7-11 11-18 26-14 32 5 7 11 5 20-7 9-11 19-15 31-11 16 6 14 11-16 35-26 22-32 32-27 49 9 26 53 31 63 7zm173-49c0-50-4-65-16-70-9-4-23-1-30 5-16 13-19 39-4 39 6 0 10-4 10-10 0-5 5-10 10-10 6 0 10 25 10 55s5 55 10 55c6 0 10-28 10-64zm40 9c0-42 3-55 15-55s15 13 15 56c0 40 4 55 13 52 13-5 22-69 13-104-7-27-41-40-61-24-17 14-21 130-5 130 6 0 10-25 10-55zm119 18 20-38 1 38c0 20 5 37 10 37 6 0 10-27 10-60s0-63 1-67c2-22-19-8-38 25l-22 37-1-37c0-21-4-38-10-38s-10 30-10 70c0 39 4 70 10 70 5 0 18-17 29-37zm91-33c0-40-4-70-10-70s-10 30-10 70 4 70 10 70 10-30 10-70zm84 48c30-42 14-118-24-118-62 0-60 137 2 140 4 0 14-10 22-22zm101 6c11-11 14-25 10-38-9-29-9-38-1-63 10-32-11-30-26 2-14 31-35 33-34 4 1-12-5-24-11-26-10-4-13 13-13 60 0 35 3 67 7 70 12 13 51 7 68-9zm-535-24c0-5-7-10-15-10s-15 5-15 10c0 6 7 10 15 10s15-4 15-10zm-2-41c-2-6-8-10-13-10s-11 4-13 10 4 11 13 11 15-5 13-11zm394-621c-6-6-38-12-69-13-32-1-70-7-85-13-27-11-98-5-98 8 0 4 46 12 103 17 154 15 163 15 149 1zm45 6c-3-3-12-4-19-1-8 3-5 6 6 6 11 1 17-2 13-5zm61-1c-10-2-26-2-35 0-10 3-2 5 17 5s27-2 18-5zm377-38c23-10 25-13 10-14-11 0-33 6-50 14-23 10-25 13-10 14 11 0 34-6 50-14zm-661-37c3-13 6-32 6-43-1-17-2-18-10-4-13 22-20 69-11 69 5 0 11-10 15-22zm789 5c-7-2-21-2-30 0-10 3-4 5 12 5 17 0 24-2 18-5zm82-13c8-13-15-13-35 0-12 8-11 10 7 10 12 0 25-4 28-10zm40-10c3-5 1-10-4-10-6 0-11 5-11 10 0 6 2 10 4 10 3 0 8-4 11-10zm-1352-125c-3-9-8-14-10-11-3 3-2 9 2 15 9 16 15 13 8-4zm522-65c3-5 2-10-4-10-5 0-13 5-16 10-3 6-2 10 4 10 5 0 13-4 16-10zm145-20c0-5-5-10-11-10-5 0-7 5-4 10 3 6 8 10 11 10 2 0 4-4 4-10zm-1005-126c0-12-8-20-23-22-21-3-21-2-10 23 13 29 33 28 33-1zm-245 7c0-6-4-13-10-16-5-3-10 1-10 9 0 9 5 16 10 16 6 0 10-4 10-9zm174-17c21-20 20-31-3-44-27-14-30-13-29 8 0 9-3 25-7 35-9 22 17 23 39 1zm-538-27c3-3-1-13-10-22-15-15-16-15-16 5 0 18-3 19-22 10-21-10-22-10-5 3 18 15 41 17 53 4zm42-16c-7-9-14-18-15-20-2-2-3 8-3 22 0 20 4 25 15 21 13-5 13-9 3-23zm97-1c-3-5-10-10-16-10-5 0-9 5-9 10 0 6 7 10 16 10 8 0 12-4 9-10zm-35-20c8-5 11-10 5-10-5 0-17 5-25 10s-10 10-5 10c6 0 17-5 25-10zm233-12c-6-11-43-10-43 1 0 5 11 8 24 7 13 0 22-4 19-8zm307 8c0-3-4-8-10-11-5-3-10-1-10 4 0 6 5 11 10 11 6 0 10-2 10-4zm30 0c0-3-4-8-10-11-5-3-10-1-10 4 0 6 5 11 10 11 6 0 10-2 10-4zm70-6c0-5-4-10-10-10-5 0-10 5-10 10 0 6 5 10 10 10 6 0 10-4 10-10zm-310-20c0-5-2-10-4-10-3 0-8 5-11 10-3 6-1 10 4 10 6 0 11-4 11-10z"/><path d="m1280 2210c0-13 5-20 13-17 6 2 12 10 12 17s-6 15-12 18c-8 2-13-5-13-18z"/><path d="m1572 2213c4-21 33-25 33-3 0 8-8 16-18 18-14 3-18-1-15-15z"/><path d="m1777 2224c-10-11-9-82 2-89 11-6 31 25 31 47 0 20-24 51-33 42z"/><path d="m1980 2185c0-48 23-64 35-24 9 29-2 69-20 69-11 0-15-12-15-45z"/><path d="m1387 1976c-10-26-8-74 2-81 11-6 31 25 31 47 0 8-6 22-13 32-13 18-14 18-20 2z"/><path d="m1526 1983c-12-12-6-33 9-33 8 0 15 6 15 14 0 17-14 28-24 19z"/><path d="m2174 1954c-7-28 6-61 22-56 14 3 11 75-3 79-7 3-15-8-19-23z"/><path d="m2276 1964c-10-26-7-51 9-64 12-10 16-8 23 10 11 30 3 70-13 70-7 0-16-7-19-16z"/><path d="m980 1735c0-8 5-15 10-15 6 0 10 7 10 15s-4 15-10 15c-5 0-10-7-10-15z"/><path d="m981 1686c-12-14-5-26 16-26 15 0 18 26 4 34-5 3-14 0-20-8z"/><path d="m1717 1213c-10-10-8-71 2-78 15-9 33 34 27 61-6 24-17 30-29 17z"/><path d="m1810 1205c0-8 7-15 15-15s15 7 15 15-7 15-15 15-15-7-15-15z"/><path d="m1160 395c-7-9-10-18-6-22 3-3 6-1 6 5 0 7 7 12 15 12s15 5 15 10c0 15-16 12-30-5z"/><path d="m2780 268c0-23 3-29 9-19 8 12 4 51-5 51-2 0-4-15-4-32z"/><path d="m1171 225 2-70 7 60c4 33 3 64-2 70-4 5-7-22-7-60z"/><path d="m1370 211c0-7 7-14 15-17 8-4 12-10 9-15s-1-9 3-9c5 0 14 9 21 20 10 16 10 20-2 20-8 0-21 3-30 6s-16 1-16-5z"/><path d="m2175 200c-6-10 1-14 18-11 5 1 6-2 3-7s8-9 25-10c16 0 27 4 24 9-4 5 4 9 17 9s29-9 36-20c10-17 16-18 32-10 30 16 24 25-25 38-55 15-122 16-130 2z"/><path d="m1227 179c-4-16-3-18 9-8 7 6 11 15 8 20-8 13-11 11-17-12z"/><path d="m1290 155c0-14 3-25 8-25 4 0 7 11 7 25s-3 25-7 25c-5 0-8-11-8-25z"/><path d="m1813 172c-24-4-32-22-10-22 15 0 43 18 37 22-3 2-15 2-27 0z"/><path d="m2140 160c0-5-11-10-24-10-28 0-42-15-25-26 6-3 15-1 19 6s13 9 19 6c6-4 11-2 11 3 0 6 11 11 25 11s25-4 25-8c0-5 7-9 16-9 12 0 10 5-7 18-26 20-59 25-59 9z"/><path d="m2320 141c0-16 28-20 34-5 4 9-1 14-14 14-11 0-20-4-20-9z"/><path d="m2908 143c7-3 16-2 19 1 4 3-2 6-13 5-11 0-14-3-6-6z"/><path d="m1227 120c-3-11-1-23 4-26s9 6 9 20c0 31-6 34-13 6z"/><path d="m1430 130c17-11 57-14 47-3-4 3-19 8-34 9-21 2-24 1-13-6z"/><path d="m1172 110c0-14 2-19 5-12 2 6 2 18 0 25-3 6-5 1-5-13z"/><path d="m1544 118c-4-6-3-8 4-4 5 3 12 1 14-4 5-15 79-31 96-21 9 5 0 10-29 14-24 3-45 11-47 16-5 15-29 14-38-1z"/><path d="m2392 113c2-10 8-21 13-25 6-5 5-11-3-17-10-6-6-11 16-20 31-13 105-1 117 19 8 12 7 12-33 1-20-6-32-6-32 0 0 5-6 9-13 9s-22 7-33 15c-17 14-15 14 26 8 39-5 43-4 30 8-8 8-32 15-53 17-31 2-37-1-35-15z"/><path d="m1868 113c6-2 18-2 25 0 6 3 1 5-13 5s-19-2-12-5z"/><path d="m1293 65c0-22 2-30 4-17 2 12 2 30 0 40-3 9-5-1-4-23z"/><path d="m1685 90c-3-5-1-10 4-10 6 0 11 5 11 10 0 6-2 10-4 10-3 0-8-4-11-10z"/><path d="m1843 83c9-2 25-2 35 0 9 3 1 5-18 5s-27-2-17-5z"/><path d="m1924 78c-4-6 97-17 105-11 2 2 1 6-3 10-9 9-96 10-102 1z"/><path d="m2334 63c2-10 6-17 10-16 15 3 16 11 2 22-12 10-14 9-12-6z"/><path d="m2078 63c7-3 16-2 19 1 4 3-2 6-13 5-11 0-14-3-6-6z"/><path d="m2555 60c3-5 8-10 11-10 2 0 4 5 4 10 0 6-5 10-11 10-5 0-7-4-4-10z"/><path d="m1220 51c0-5 5-13 10-16 6-3 10-2 10 4 0 5-4 13-10 16-5 3-10 2-10-4z"/><path d="m669 30-24-20 28 11c15 7 27 16 27 21 0 12-5 10-31-12z"/><path d="m1840 30c0-19 26-30 78-30 39 0 42 17 5 26-16 3-35 8-43 11-31 12-40 11-40-7z"/><path d="m1958 37c26-10 30-15 20-25-9-9-7-12 10-12 33 0 27 26-9 39-18 6-37 11-43 10-6 0 4-6 22-12z"/><path d="m2008 43c7-3 16-2 19 1 4 3-2 6-13 5-11 0-14-3-6-6z"/><path d="m920 30c0-5 5-10 11-10 5 0 7 5 4 10-3 6-8 10-11 10-2 0-4-4-4-10z"/><path d="m1686 26c8-20 34-29 34-12 0 8-7 17-16 20-22 9-24 8-18-8z"/><path d="m2070 30c0-9 25-20 46-20 9 0 13 4 10 9-7 11-56 21-56 11z"/><path d="m955 20c-3-5-1-10 4-10 6 0 11 5 11 10 0 6-2 10-4 10-3 0-8-4-11-10z"/><path d="m2595 19c-4-6-5-12-2-15 2-3 7 2 10 11 7 17 1 20-8 4z"/><path d="m1180 10c0-5 5-10 10-10 6 0 10 5 10 10 0 6-4 10-10 10-5 0-10-4-10-10z"/><path d="m2180 16c0-2 7-7 16-10 8-3 12-2 9 4-6 10-25 14-25 6z"/><path d="m2615 10c-3-5-1-10 4-10 6 0 11 5 11 10 0 6-2 10-4 10-3 0-8-4-11-10z"/><path d="m2398 3c7-3 16-2 19 1 4 3-2 6-13 5-11 0-14-3-6-6z"/><path d="m2458 3c12-2 32-2 45 0 12 2 2 4-23 4s-35-2-22-4z"/></g></svg>